#!OML:ASF E:\Style4\Style4.ASF
:FULLY-SPECIFIED
:DEGREES
3057
root -0.103029 17.1601 -1.23221 -0.230971 7.65173 0.201485
lowerback 7.97555 -2.73262 -4.93787
upperback 3.98198 -3.95082 1.50663
thorax 0.113799 -2.06746 4.62175
lowerneck 1.51644 0.192535 -6.35971
upperneck 25.1592 -0.275085 4.24285
head 7.46938 -0.367668 2.4772
rclavicle 9.19379e-015 -2.28602e-015
rhumerus -51.0215 -5.18774 -30.4673
rradius 115.68
rwrist -91.3225
rhand -35.9284 18.3411
rfingers 7.12502
rthumb -9.04071 -11.4451
lclavicle 9.19379e-015 -2.28602e-015
lhumerus -18.0478 -40.6702 77.4767
lradius 136
lwrist 47.5167
lhand 9.9094 19.8927
lfingers 7.12502
lthumb 35.0404 46.4393
rfemur -17.9396 -7.81512 20.4939
rtibia 45.8268
rfoot -26.5047 -16.3989
rtoes -8.41726
lfemur -19.7245 -4.43725 -18.6521
ltibia 45.3212
lfoot -24.3107 4.30862
ltoes -13.9651
3058
root -0.108968 17.1482 -1.23066 -0.320155 7.87876 0.16957
lowerback 8.01468 -2.60038 -4.97247
upperback 4.03291 -3.77843 1.44794
thorax 0.123374 -1.98212 4.56998
lowerneck 1.53768 0.00207689 -6.31135
upperneck 25.0716 -0.591536 4.50278
head 7.4524 -0.490882 2.53645
rclavicle -4.56087e-014 1.85864e-014
rhumerus -50.9205 -6.2185 -30.2884
rradius 115.566
rwrist -91.489
rhand -36.625 18.641
rfingers 7.12502
rthumb -9.71287 -11.115
lclavicle -4.56087e-014 1.85864e-014
lhumerus -18.9723 -40.776 78.2272
lradius 136.459
lwrist 47.7748
lhand 10.1305 20.1163
lfingers 7.12502
lthumb 35.2501 46.6136
rfemur -17.9179 -7.97884 20.5348
rtibia 46.0259
rfoot -26.6569 -16.4161
rtoes -8.16458
lfemur -19.7799 -4.5687 -18.6064
ltibia 45.5347
lfoot -24.3777 4.14821
ltoes -13.5153
3059
root -0.110672 17.1415 -1.22369 -0.400234 8.06844 0.221781
lowerback 7.97901 -2.47013 -5.06031
upperback 4.09348 -3.6089 1.37288
thorax 0.187277 -1.90073 4.52649
lowerneck 1.57346 -0.18017 -6.29348
upperneck 24.9653 -0.894195 4.7582
head 7.42692 -0.610998 2.59988
rclavicle -5.59082e-017 5.31749e-015
rhumerus -50.6897 -7.09523 -30.1948
rradius 115.485
rwrist -91.6269
rhand -37.3976 18.9035
rfingers 7.12502
rthumb -10.4582 -10.8163
lclavicle -5.59082e-017 5.31749e-015
lhumerus -19.9957 -40.628 78.9756
lradius 136.787
lwrist 47.9746
lhand 10.1745 20.1871
lfingers 7.12502
lthumb 35.2918 46.6745
rfemur -17.8375 -8.16125 20.4422
rtibia 46.1673
rfoot -26.7977 -16.3411
rtoes -7.86428
lfemur -19.7726 -4.7065 -18.6868
ltibia 45.6962
lfoot -24.4433 4.19862
ltoes -13.937
3060
root -0.113591 17.135 -1.22048 -0.452624 8.20575 0.246097
lowerback 7.95773 -2.28084 -5.09132
upperback 4.12819 -3.35804 1.29711
thorax 0.203159 -1.77568 4.44712
lowerneck 1.61854 -0.410421 -6.32193
upperneck 24.8573 -1.27387 5.08254
head 7.40516 -0.766517 2.68997
rclavicle -1.34444e-014 -1.69464e-014
rhumerus -50.5608 -7.91847 -30.1829
rradius 115.48
rwrist -91.6822
rhand -38.2964 19.196
rfingers 7.12502
rthumb -11.3252 -10.4782
lclavicle -1.34444e-014 -1.69464e-014
lhumerus -21.1097 -40.3587 79.7253
lradius 137.002
lwrist 48.0507
lhand 10.0998 20.0242
lfingers 7.12502
lthumb 35.221 46.5284
rfemur -17.7998 -8.26633 20.403
rtibia 46.261
rfoot -26.8756 -16.3035
rtoes -7.53307
lfemur -19.7826 -4.82931 -18.7241
ltibia 45.8129
lfoot -24.5049 4.28434
ltoes -14.3703
3061
root -0.117198 17.1304 -1.21766 -0.503342 8.28804 0.2126
lowerback 7.9142 -2.00831 -4.98126
upperback 4.17504 -2.98591 1.17444
thorax 0.219604 -1.58719 4.23045
lowerneck 1.61548 -0.720387 -6.17036
upperneck 24.8209 -1.76309 5.36887
head 7.42259 -0.960748 2.73118
rclavicle 1.0256e-014 -2.12948e-014
rhumerus -50.5753 -8.79487 -30.257
rradius 115.474
rwrist -91.8476
rhand -39.0167 20.0395
rfingers 7.12502
rthumb -12.0198 -9.59538
lclavicle 1.0256e-014 -2.12948e-014
lhumerus -22.0741 -40.0898 80.1726
lradius 137.157
lwrist 48.0878
lhand 9.69877 19.9467
lfingers 7.12502
lthumb 34.8406 46.5398
rfemur -17.7587 -8.28146 20.4493
rtibia 46.3069
rfoot -26.9351 -16.3058
rtoes -7.24919
lfemur -19.7686 -4.86805 -18.6913
ltibia 45.8867
lfoot -24.5401 4.32855
ltoes -14.6265
3062
root -0.11945 17.1312 -1.21295 -0.518941 8.35077 0.209878
lowerback 7.82517 -1.73019 -4.88525
upperback 4.22198 -2.6053 1.03937
thorax 0.263679 -1.39529 4.00637
lowerneck 1.57809 -1.04402 -5.92958
upperneck 24.8109 -2.25857 5.57442
head 7.45499 -1.15603 2.72951
rclavicle 2.0686e-014 -1.03865e-014
rhumerus -50.4709 -9.5979 -30.4887
rradius 115.436
rwrist -92.0274
rhand -39.5181 21.5756
rfingers 7.12502
rthumb -12.5032 -8.03037
lclavicle 2.0686e-014 -1.03865e-014
lhumerus -23.1515 -39.6142 80.4583
lradius 137.269
lwrist 47.8347
lhand 9.01104 19.7348
lfingers 7.12502
lthumb 34.1878 46.4767
rfemur -17.7211 -8.28815 20.4543
rtibia 46.3184
rfoot -26.9901 -16.2755
rtoes -7.29067
lfemur -19.7437 -4.84808 -18.7022
ltibia 45.8972
lfoot -24.4941 4.44881
ltoes -15.2209
3063
root -0.120001 17.1338 -1.20924 -0.495829 8.38069 0.330744
lowerback 7.7398 -1.47985 -4.9237
upperback 4.23651 -2.2714 0.906847
thorax 0.286483 -1.22791 3.86505
lowerneck 1.55295 -1.3263 -5.81028
upperneck 24.8305 -2.6878 5.75622
head 7.49298 -1.3328 2.74469
rclavicle -3.52843e-015 4.52235e-015
rhumerus -50.1505 -10.1348 -30.9134
rradius 115.409
rwrist -92.1347
rhand -40.2263 22.6822
rfingers 7.12502
rthumb -13.1859 -6.88078
lclavicle -3.52843e-015 4.52235e-015
lhumerus -24.0122 -38.6621 80.4522
lradius 137.171
lwrist 47.7642
lhand 8.57327 19.6138
lfingers 7.12502
lthumb 33.7719 46.4479
rfemur -17.6958 -8.31214 20.3181
rtibia 46.3068
rfoot -26.9966 -16.2483
rtoes -7.45231
lfemur -19.6946 -4.80751 -18.8521
ltibia 45.8354
lfoot -24.4315 4.58338
ltoes -15.6558
